<mxfile host="app.diagrams.net" modified="2023-11-24T00:03:18.141Z" agent="Mozilla/5.0 (Windows NT 10.0; Win64; x64) AppleWebKit/537.36 (KHTML, like Gecko) Chrome/119.0.0.0 Safari/537.36" etag="RV3D6N8fxcNLiLTRwnq-" version="22.1.3" type="github">
  <diagram name="Page-1" id="PKf_uY9mV-lAt7suZGPa">
    <mxGraphModel dx="2284" dy="1846" grid="1" gridSize="10" guides="1" tooltips="1" connect="1" arrows="1" fold="1" page="1" pageScale="1" pageWidth="850" pageHeight="1100" math="0" shadow="0">
      <root>
        <mxCell id="0" />
        <mxCell id="1" parent="0" />
        <mxCell id="95WaL3ivA4pqPn56faXc-38" value="" style="rounded=0;whiteSpace=wrap;html=1;" parent="1" vertex="1">
          <mxGeometry x="140" y="180" width="15" height="130" as="geometry" />
        </mxCell>
        <mxCell id="95WaL3ivA4pqPn56faXc-1" value="&lt;font color=&quot;#ff66b3&quot;&gt;happy-earth-tea-data-context.html&lt;/font&gt;" style="rounded=0;whiteSpace=wrap;html=1;" parent="1" vertex="1">
          <mxGeometry x="-400" y="-70" width="200" height="30" as="geometry" />
        </mxCell>
        <mxCell id="95WaL3ivA4pqPn56faXc-3" value="&lt;font color=&quot;#ff66b3&quot;&gt;cat-button.html&lt;/font&gt;" style="rounded=0;whiteSpace=wrap;html=1;" parent="1" vertex="1">
          <mxGeometry x="110" y="-25" width="90" height="20" as="geometry" />
        </mxCell>
        <mxCell id="95WaL3ivA4pqPn56faXc-4" value="&lt;font color=&quot;#ff66b3&quot;&gt;tea-result.html&lt;/font&gt;" style="rounded=0;whiteSpace=wrap;html=1;" parent="1" vertex="1">
          <mxGeometry x="110" y="70" width="80" height="20" as="geometry" />
        </mxCell>
        <mxCell id="95WaL3ivA4pqPn56faXc-5" value="&lt;font color=&quot;#ff66b3&quot;&gt;tea-pool.html&lt;/font&gt;" style="whiteSpace=wrap;html=1;" parent="1" vertex="1">
          <mxGeometry x="110" y="140" width="75" height="20" as="geometry" />
        </mxCell>
        <mxCell id="95WaL3ivA4pqPn56faXc-10" style="edgeStyle=none;rounded=0;orthogonalLoop=1;jettySize=auto;html=1;exitX=0.5;exitY=0.5;exitDx=0;exitDy=0;exitPerimeter=0;entryX=0;entryY=0.5;entryDx=0;entryDy=0;" parent="1" source="95WaL3ivA4pqPn56faXc-6" target="95WaL3ivA4pqPn56faXc-12" edge="1">
          <mxGeometry relative="1" as="geometry">
            <mxPoint x="-320" y="60" as="targetPoint" />
            <Array as="points" />
          </mxGeometry>
        </mxCell>
        <mxCell id="95WaL3ivA4pqPn56faXc-11" value="User Enters Site" style="edgeLabel;html=1;align=center;verticalAlign=middle;resizable=0;points=[];" parent="95WaL3ivA4pqPn56faXc-10" vertex="1" connectable="0">
          <mxGeometry x="0.0353" y="-1" relative="1" as="geometry">
            <mxPoint x="-1" y="-4" as="offset" />
          </mxGeometry>
        </mxCell>
        <mxCell id="95WaL3ivA4pqPn56faXc-6" value="Actor" style="shape=umlActor;verticalLabelPosition=bottom;verticalAlign=top;html=1;outlineConnect=0;" parent="1" vertex="1">
          <mxGeometry x="-520" y="-5" width="30" height="60" as="geometry" />
        </mxCell>
        <mxCell id="95WaL3ivA4pqPn56faXc-13" style="edgeStyle=none;rounded=0;orthogonalLoop=1;jettySize=auto;html=1;entryX=0;entryY=0.75;entryDx=0;entryDy=0;exitX=1;exitY=0.5;exitDx=0;exitDy=0;" parent="1" source="95WaL3ivA4pqPn56faXc-12" target="95WaL3ivA4pqPn56faXc-3" edge="1">
          <mxGeometry relative="1" as="geometry">
            <mxPoint x="110" y="40" as="targetPoint" />
            <mxPoint x="-220" y="50" as="sourcePoint" />
          </mxGeometry>
        </mxCell>
        <mxCell id="95WaL3ivA4pqPn56faXc-19" value="&lt;font&gt;tea-brewed event&lt;/font&gt;" style="edgeLabel;html=1;align=center;verticalAlign=middle;resizable=0;points=[];fontColor=#FF8000;" parent="95WaL3ivA4pqPn56faXc-13" vertex="1" connectable="0">
          <mxGeometry x="-0.101" y="1" relative="1" as="geometry">
            <mxPoint x="8" y="-5" as="offset" />
          </mxGeometry>
        </mxCell>
        <mxCell id="95WaL3ivA4pqPn56faXc-7" value="" style="rounded=0;whiteSpace=wrap;html=1;" parent="1" vertex="1">
          <mxGeometry x="-307.5" y="-10" width="15" height="180" as="geometry" />
        </mxCell>
        <mxCell id="95WaL3ivA4pqPn56faXc-20" style="edgeStyle=none;rounded=0;orthogonalLoop=1;jettySize=auto;html=1;exitX=1;exitY=0.5;exitDx=0;exitDy=0;entryX=0;entryY=0.5;entryDx=0;entryDy=0;" parent="1" source="95WaL3ivA4pqPn56faXc-12" target="95WaL3ivA4pqPn56faXc-4" edge="1">
          <mxGeometry relative="1" as="geometry" />
        </mxCell>
        <mxCell id="95WaL3ivA4pqPn56faXc-22" style="edgeStyle=none;rounded=0;orthogonalLoop=1;jettySize=auto;html=1;exitX=1;exitY=0.5;exitDx=0;exitDy=0;entryX=0;entryY=0.5;entryDx=0;entryDy=0;" parent="1" source="95WaL3ivA4pqPn56faXc-12" target="95WaL3ivA4pqPn56faXc-21" edge="1">
          <mxGeometry relative="1" as="geometry" />
        </mxCell>
        <mxCell id="95WaL3ivA4pqPn56faXc-23" value="&lt;font color=&quot;#ff9933&quot;&gt;tea-brewed event&lt;/font&gt;" style="edgeLabel;html=1;align=center;verticalAlign=middle;resizable=0;points=[];" parent="95WaL3ivA4pqPn56faXc-22" vertex="1" connectable="0">
          <mxGeometry x="-0.0465" y="-1" relative="1" as="geometry">
            <mxPoint y="1" as="offset" />
          </mxGeometry>
        </mxCell>
        <mxCell id="95WaL3ivA4pqPn56faXc-12" value="&lt;font color=&quot;#00ff00&quot;&gt;Init(Context)&amp;nbsp;&lt;/font&gt; &lt;font color=&quot;#9999ff&quot;&gt;teaBrewed &lt;/font&gt;= true" style="rounded=0;whiteSpace=wrap;html=1;" parent="1" vertex="1">
          <mxGeometry x="-350" y="10" width="100" height="30" as="geometry" />
        </mxCell>
        <mxCell id="95WaL3ivA4pqPn56faXc-14" value="" style="endArrow=none;html=1;rounded=0;entryX=0.5;entryY=1;entryDx=0;entryDy=0;exitX=0.5;exitY=0;exitDx=0;exitDy=0;" parent="1" source="95WaL3ivA4pqPn56faXc-7" target="95WaL3ivA4pqPn56faXc-1" edge="1">
          <mxGeometry width="50" height="50" relative="1" as="geometry">
            <mxPoint x="-200" y="140" as="sourcePoint" />
            <mxPoint x="-150" y="90" as="targetPoint" />
          </mxGeometry>
        </mxCell>
        <mxCell id="95WaL3ivA4pqPn56faXc-21" value="&lt;font color=&quot;#ff66b3&quot;&gt;tea-categories.html&lt;/font&gt;" style="whiteSpace=wrap;html=1;" parent="1" vertex="1">
          <mxGeometry x="110" y="30" width="110" height="20" as="geometry" />
        </mxCell>
        <mxCell id="95WaL3ivA4pqPn56faXc-26" value="&lt;font color=&quot;#ff8000&quot;&gt;tea-brewed event&lt;/font&gt;" style="edgeLabel;html=1;align=center;verticalAlign=middle;resizable=0;points=[];" parent="1" vertex="1" connectable="0">
          <mxGeometry x="-80" y="55" as="geometry" />
        </mxCell>
        <mxCell id="95WaL3ivA4pqPn56faXc-27" style="edgeStyle=none;rounded=0;orthogonalLoop=1;jettySize=auto;html=1;exitX=1;exitY=0.5;exitDx=0;exitDy=0;entryX=0;entryY=0.5;entryDx=0;entryDy=0;" parent="1" source="95WaL3ivA4pqPn56faXc-12" target="95WaL3ivA4pqPn56faXc-5" edge="1">
          <mxGeometry relative="1" as="geometry">
            <mxPoint x="-170" y="90" as="sourcePoint" />
            <mxPoint x="190" y="145" as="targetPoint" />
          </mxGeometry>
        </mxCell>
        <mxCell id="95WaL3ivA4pqPn56faXc-28" value="&lt;font color=&quot;#ff8000&quot;&gt;tea-brewed event&lt;/font&gt;" style="edgeLabel;html=1;align=center;verticalAlign=middle;resizable=0;points=[];" parent="1" vertex="1" connectable="0">
          <mxGeometry x="-80" y="80" as="geometry" />
        </mxCell>
        <mxCell id="95WaL3ivA4pqPn56faXc-32" style="edgeStyle=orthogonalEdgeStyle;rounded=0;orthogonalLoop=1;jettySize=auto;html=1;exitX=1;exitY=0.5;exitDx=0;exitDy=0;entryX=0.75;entryY=0;entryDx=0;entryDy=0;curved=1;" parent="1" source="95WaL3ivA4pqPn56faXc-3" target="95WaL3ivA4pqPn56faXc-3" edge="1">
          <mxGeometry relative="1" as="geometry">
            <Array as="points">
              <mxPoint x="220" y="-15" />
              <mxPoint x="220" y="-55" />
              <mxPoint x="178" y="-55" />
            </Array>
          </mxGeometry>
        </mxCell>
        <mxCell id="95WaL3ivA4pqPn56faXc-33" value="Enable Button" style="text;html=1;align=center;verticalAlign=middle;resizable=0;points=[];autosize=1;strokeColor=none;fillColor=none;" parent="1" vertex="1">
          <mxGeometry x="210" y="-50" width="100" height="30" as="geometry" />
        </mxCell>
        <mxCell id="95WaL3ivA4pqPn56faXc-42" style="edgeStyle=orthogonalEdgeStyle;curved=1;rounded=0;orthogonalLoop=1;jettySize=auto;html=1;exitX=0.5;exitY=1;exitDx=0;exitDy=0;entryX=0.5;entryY=0;entryDx=0;entryDy=0;" parent="1" source="95WaL3ivA4pqPn56faXc-37" target="95WaL3ivA4pqPn56faXc-41" edge="1">
          <mxGeometry relative="1" as="geometry" />
        </mxCell>
        <mxCell id="95WaL3ivA4pqPn56faXc-37" value="Sets the &lt;font color=&quot;#9999ff&quot;&gt;category &lt;/font&gt;attribute to 0 (All)&amp;nbsp;" style="rounded=0;whiteSpace=wrap;html=1;" parent="1" vertex="1">
          <mxGeometry x="47.5" y="190" width="200" height="20" as="geometry" />
        </mxCell>
        <mxCell id="95WaL3ivA4pqPn56faXc-40" value="" style="endArrow=none;html=1;rounded=0;curved=1;entryX=0.5;entryY=1;entryDx=0;entryDy=0;exitX=0.5;exitY=0;exitDx=0;exitDy=0;" parent="1" source="95WaL3ivA4pqPn56faXc-38" target="95WaL3ivA4pqPn56faXc-5" edge="1">
          <mxGeometry width="50" height="50" relative="1" as="geometry">
            <mxPoint x="20" y="210" as="sourcePoint" />
            <mxPoint x="70" y="160" as="targetPoint" />
          </mxGeometry>
        </mxCell>
        <mxCell id="95WaL3ivA4pqPn56faXc-44" style="edgeStyle=orthogonalEdgeStyle;curved=1;rounded=0;orthogonalLoop=1;jettySize=auto;html=1;exitX=0;exitY=0.5;exitDx=0;exitDy=0;entryX=1;entryY=0.5;entryDx=0;entryDy=0;" parent="1" target="95WaL3ivA4pqPn56faXc-43" edge="1">
          <mxGeometry relative="1" as="geometry">
            <mxPoint x="57.5" y="239.99999999999977" as="sourcePoint" />
            <mxPoint x="-230.00000000000023" y="104.99999999999977" as="targetPoint" />
          </mxGeometry>
        </mxCell>
        <mxCell id="95WaL3ivA4pqPn56faXc-45" value="&lt;font color=&quot;#ff8000&quot;&gt;get-category-by-enum&lt;/font&gt;" style="edgeLabel;html=1;align=center;verticalAlign=middle;resizable=0;points=[];" parent="95WaL3ivA4pqPn56faXc-44" vertex="1" connectable="0">
          <mxGeometry x="0.5521" y="11" relative="1" as="geometry">
            <mxPoint x="56" y="49" as="offset" />
          </mxGeometry>
        </mxCell>
        <mxCell id="95WaL3ivA4pqPn56faXc-41" value="Sends Event&amp;nbsp;&lt;font color=&quot;#ff8000&quot;&gt;get-categories-by-enum&lt;/font&gt; up" style="rounded=0;whiteSpace=wrap;html=1;" parent="1" vertex="1">
          <mxGeometry x="32.5" y="230" width="230" height="20" as="geometry" />
        </mxCell>
        <mxCell id="95WaL3ivA4pqPn56faXc-46" style="edgeStyle=orthogonalEdgeStyle;curved=1;rounded=0;orthogonalLoop=1;jettySize=auto;html=1;exitX=1;exitY=0.75;exitDx=0;exitDy=0;entryX=0;entryY=0.5;entryDx=0;entryDy=0;" parent="1" source="95WaL3ivA4pqPn56faXc-43" target="95WaL3ivA4pqPn56faXc-47" edge="1">
          <mxGeometry relative="1" as="geometry">
            <mxPoint x="-110.00000000000023" y="259.9999999999998" as="targetPoint" />
            <Array as="points">
              <mxPoint x="-110" y="122" />
              <mxPoint x="-110" y="280" />
            </Array>
          </mxGeometry>
        </mxCell>
        <mxCell id="95WaL3ivA4pqPn56faXc-48" value="&lt;font color=&quot;#00ff00&quot;&gt;loadCategoryByEnum&amp;nbsp;&lt;/font&gt;" style="edgeLabel;html=1;align=center;verticalAlign=middle;resizable=0;points=[];" parent="95WaL3ivA4pqPn56faXc-46" vertex="1" connectable="0">
          <mxGeometry x="-0.0864" y="13" relative="1" as="geometry">
            <mxPoint as="offset" />
          </mxGeometry>
        </mxCell>
        <mxCell id="95WaL3ivA4pqPn56faXc-43" value="Checks the callback element&#39;s &lt;font color=&quot;#9999ff&quot;&gt;category &lt;/font&gt;attribute. Passes set back via&amp;nbsp;&lt;font color=&quot;#00ff00&quot;&gt;loadCategoryByName&lt;/font&gt; callback" style="rounded=0;whiteSpace=wrap;html=1;" parent="1" vertex="1">
          <mxGeometry x="-415" y="70" width="230" height="70" as="geometry" />
        </mxCell>
        <mxCell id="95WaL3ivA4pqPn56faXc-47" value="Updates List of TeaPool" style="whiteSpace=wrap;html=1;" parent="1" vertex="1">
          <mxGeometry x="82.5" y="270" width="130" height="20" as="geometry" />
        </mxCell>
      </root>
    </mxGraphModel>
  </diagram>
</mxfile>
